#tb 0: 1/200
0,          0,          0,        1,   270000, 0xf90015d8
0,          9,          9,        1,   270000, 0xf90015d8
0,         15,         15,        1,   270000, 0xf90015d8
0,         22,         22,        1,   270000, 0xf90015d8
0,         28,         28,        1,   270000, 0xf90015d8
0,         34,         34,        1,   270000, 0xf90015d8
0,         40,         40,        1,   270000, 0xf90015d8
0,         47,         47,        1,   270000, 0xf90015d8
0,         53,         53,        1,   270000, 0xf90015d8
0,         59,         59,        1,   270000, 0xf90015d8
0,         65,         65,        1,   270000, 0xf90015d8
0,         72,         72,        1,   270000, 0xf90015d8
0,         78,         78,        1,   270000, 0xf90015d8
0,         84,         84,        1,   270000, 0xf90015d8
0,         93,         93,        1,   270000, 0xf90015d8
0,        100,        100,        1,   270000, 0xf90015d8
0,        106,        106,        1,   270000, 0xf90015d8
0,        112,        112,        1,   270000, 0xf90015d8
0,        118,        118,        1,   270000, 0xf90015d8
0,        125,        125,        1,   270000, 0xf90015d8
0,        131,        131,        1,   270000, 0xf90015d8
0,        137,        137,        1,   270000, 0xf90015d8
0,        143,        143,        1,   270000, 0xf90015d8
0,        150,        150,        1,   270000, 0xf90015d8
0,        156,        156,        1,   270000, 0xf90015d8
0,        162,        162,        1,   270000, 0xf90015d8
0,        168,        168,        1,   270000, 0xf90015d8
0,        175,        175,        1,   270000, 0xf90015d8
0,        181,        181,        1,   270000, 0xf90015d8
0,        187,        187,        1,   270000, 0xf90015d8
0,        193,        193,        1,   270000, 0xf90015d8
0,        200,        200,        1,   270000, 0xf90015d8
0,        206,        206,        1,   270000, 0xf90015d8
0,        212,        212,        1,   270000, 0xf90015d8
0,        218,        218,        1,   270000, 0xf90015d8
0,        225,        225,        1,   270000, 0xf90015d8
0,        231,        231,        1,   270000, 0xf90015d8
0,        237,        237,        1,   270000, 0xf90015d8
0,        243,        243,        1,   270000, 0xf90015d8
0,        253,        253,        1,   270000, 0x1f9c15d8
0,        262,        262,        1,   270000, 0x436f15d8
0,        268,        268,        1,   270000, 0xe90115d8
0,        275,        275,        1,   270000, 0xe90115d8
0,        281,        281,        1,   270000, 0x8ea215d8
0,        290,        290,        1,   270000, 0x424015d8
0,        300,        300,        1,   270000, 0x0ce315d8
0,        309,        309,        1,   270000, 0x14bc15d8
0,        318,        318,        1,   270000, 0x2a9215d8
0,        328,        328,        1,   270000, 0x233f15d8
0,        337,        337,        1,   270000, 0x764b15d8
0,        347,        347,        1,   270000, 0xf76115d8
0,        356,        356,        1,   270000, 0xbbe015d8
0,        365,        365,        1,   270000, 0x95af15d8
0,        375,        375,        1,   270000, 0x324815d8
0,        384,        384,        1,   270000, 0x311915d8
0,        393,        393,        1,   270000, 0x090ef191
0,        403,        403,        1,   270000, 0xd88974dc
0,        412,        412,        1,   270000, 0xfa7f58df
0,        422,        422,        1,   270000, 0x78f849c3
0,        431,        431,        1,   270000, 0xae174892
0,        440,        440,        1,   270000, 0x9d4e2332
0,        450,        450,        1,   270000, 0x874b09b4
0,        459,        459,        1,   270000, 0x4069fed6
0,        465,        465,        1,   270000, 0x4069fed6
0,        472,        472,        1,   270000, 0x4069fed6
0,        478,        478,        1,   270000, 0x4069fed6
0,        484,        484,        1,   270000, 0x4069fed6
0,        490,        490,        1,   270000, 0x4069fed6
0,        500,        500,        1,   270000, 0x4069fed6
0,        506,        506,        1,   270000, 0x4069fed6
0,        512,        512,        1,   270000, 0x4069fed6
0,        518,        518,        1,   270000, 0x4069fed6
0,        525,        525,        1,   270000, 0x4069fed6
0,        553,        553,        1,   270000, 0x773db046
0,        559,        559,        1,   270000, 0x773db046
0,        565,        565,        1,   270000, 0x773db046
0,        572,        572,        1,   270000, 0x773db046
0,        578,        578,        1,   270000, 0x773db046
0,        584,        584,        1,   270000, 0x773db046
0,        590,        590,        1,   270000, 0x773db046
0,        597,        597,        1,   270000, 0x773db046
0,        603,        603,        1,   270000, 0x773db046
0,        609,        609,        1,   270000, 0x773db046
0,        615,        615,        1,   270000, 0x773db046
0,        622,        622,        1,   270000, 0x773db046
0,        628,        628,        1,   270000, 0x773db046
0,        634,        634,        1,   270000, 0x773db046
0,        640,        640,        1,   270000, 0x773db046
0,        647,        647,        1,   270000, 0x773db046
0,        653,        653,        1,   270000, 0x773db046
0,        662,        662,        1,   270000, 0x17b9aec9
0,        672,        672,        1,   270000, 0x622fad4c
0,        681,        681,        1,   270000, 0xdaea3aef
0,        687,        687,        1,   270000, 0x61bb10e3
0,        693,        693,        1,   270000, 0xfc37ee0c
0,        703,        703,        1,   270000, 0x50dbd01e
0,        712,        712,        1,   270000, 0xcd66c27c
0,        722,        722,        1,   270000, 0xd13f1e4f
0,        731,        731,        1,   270000, 0xa4a2dbf5
0,        740,        740,        1,   270000, 0xf302c9ab
0,        750,        750,        1,   270000, 0x4479f7fe
0,        759,        759,        1,   270000, 0x1afe92c8
0,        768,        768,        1,   270000, 0x3007f4c3
0,        778,        778,        1,   270000, 0x5834c096
0,        784,        784,        1,   270000, 0x40109126
0,        790,        790,        1,   270000, 0x0a7b8882
0,        800,        800,        1,   270000, 0x15b8635d
0,        806,        806,        1,   270000, 0xeaa5598e
0,        812,        812,        1,   270000, 0x0b7b5489
0,        818,        818,        1,   270000, 0x0b7b5489
0,        825,        825,        1,   270000, 0x0b7b5489
0,        831,        831,        1,   270000, 0x0b7b5489
0,        837,        837,        1,   270000, 0x8f0e6eaa
0,        847,        847,        1,   270000, 0xc46fc0f2
0,        856,        856,        1,   270000, 0xadd7e605
0,        865,        865,        1,   270000, 0x9d23a056
0,        875,        875,        1,   270000, 0x365afa63
0,        884,        884,        1,   270000, 0x6ac3bda2
0,        893,        893,        1,   270000, 0x14f5daf2
0,        903,        903,        1,   270000, 0x4b3afb6a
0,        909,        909,        1,   270000, 0x1a3302e3
0,        915,        915,        1,   270000, 0x1a3302e3
0,        922,        922,        1,   270000, 0x1a3302e3
0,        928,        928,        1,   270000, 0x1a3302e3
0,        934,        934,        1,   270000, 0xc15526e2
0,        943,        943,        1,   270000, 0x3dd73006
0,        953,        953,        1,   270000, 0x60abb5bc
0,        962,        962,        1,   270000, 0xb960c27c
0,        968,        968,        1,   270000, 0x8fa4c01c
0,        975,        975,        1,   270000, 0x8fa4c01c
0,        981,        981,        1,   270000, 0x8fa4c01c
0,        987,        987,        1,   270000, 0xb20dcc38
0,        997,        997,        1,   270000, 0x03c6ad3c
0,       1006,       1006,        1,   270000, 0xe550b194
0,       1012,       1012,        1,   270000, 0xe550b194
0,       1018,       1018,        1,   270000, 0xe550b194
0,       1025,       1025,        1,   270000, 0xe550b194
0,       1031,       1031,        1,   270000, 0xe550b194
0,       1037,       1037,        1,   270000, 0xe550b194
0,       1043,       1043,        1,   270000, 0xe550b194
0,       1050,       1050,        1,   270000, 0xe550b194
0,       1056,       1056,        1,   270000, 0xe550b194
0,       1062,       1062,        1,   270000, 0xe550b194
0,       1068,       1068,        1,   270000, 0xe550b194
0,       1075,       1075,        1,   270000, 0xe550b194
0,       1081,       1081,        1,   270000, 0xe550b194
0,       1087,       1087,        1,   270000, 0xe550b194
0,       1093,       1093,        1,   270000, 0x4550a014
0,       1103,       1103,        1,   270000, 0xaf639da8
0,       1112,       1112,        1,   270000, 0xe4229da8
0,       1118,       1118,        1,   270000, 0x315d9da8
0,       1125,       1125,        1,   270000, 0x7e899da8
0,       1134,       1134,        1,   270000, 0x99b9a8a0
0,       1143,       1143,        1,   270000, 0x4588ac2a
0,       1153,       1153,        1,   270000, 0x1e79ae6e
0,       1162,       1162,        1,   270000, 0xa003cb14
0,       1172,       1172,        1,   270000, 0x03ef1bb8
0,       1181,       1181,        1,   270000, 0x3b3f30fc
0,       1190,       1190,        1,   270000, 0x4dad3525
0,       1200,       1200,        1,   270000, 0x5b600c12
0,       1209,       1209,        1,   270000, 0x75a1fab3
0,       1218,       1218,        1,   270000, 0xc9f7d9ad
0,       1228,       1228,        1,   270000, 0x9eaec58d
0,       1237,       1237,        1,   270000, 0xb91bc3e8
0,       1247,       1247,        1,   270000, 0x77bdbbfb
0,       1253,       1253,        1,   270000, 0x77bdbbfb
0,       1259,       1259,        1,   270000, 0x77bdbbfb
0,       1265,       1265,        1,   270000, 0x77bdbbfb
0,       1272,       1272,        1,   270000, 0x77bdbbfb
0,       1278,       1278,        1,   270000, 0x77bdbbfb
0,       1287,       1287,        1,   270000, 0x3d54eac2
0,       1293,       1293,        1,   270000, 0x3d54eac2
0,       1300,       1300,        1,   270000, 0x3d54eac2
0,       1306,       1306,        1,   270000, 0x3d54eac2
0,       1315,       1315,        1,   270000, 0x3d54eac2
0,       1322,       1322,        1,   270000, 0x3d54eac2
0,       1328,       1328,        1,   270000, 0x3d54eac2
0,       1334,       1334,        1,   270000, 0x3d54eac2
0,       1340,       1340,        1,   270000, 0x3d54eac2
0,       1347,       1347,        1,   270000, 0x3d54eac2
0,       1353,       1353,        1,   270000, 0x3d54eac2
0,       1359,       1359,        1,   270000, 0x3d54eac2
0,       1365,       1365,        1,   270000, 0x3d54eac2
0,       1372,       1372,        1,   270000, 0x3d54eac2
0,       1378,       1378,        1,   270000, 0x3d54eac2
0,       1384,       1384,        1,   270000, 0x3d54eac2
0,       1390,       1390,        1,   270000, 0x3d54eac2
0,       1397,       1397,        1,   270000, 0x3d54eac2
0,       1403,       1403,        1,   270000, 0x3d54eac2
0,       1412,       1412,        1,   270000, 0x5f3609ba
0,       1422,       1422,        1,   270000, 0x80921b0c
0,       1428,       1428,        1,   270000, 0x80921b0c
0,       1434,       1434,        1,   270000, 0x80921b0c
0,       1440,       1440,        1,   270000, 0x80921b0c
0,       1447,       1447,        1,   270000, 0x80921b0c
0,       1453,       1453,        1,   270000, 0x80921b0c
0,       1459,       1459,        1,   270000, 0x80921b0c
0,       1465,       1465,        1,   270000, 0x80921b0c
0,       1472,       1472,        1,   270000, 0x80921b0c
0,       1478,       1478,        1,   270000, 0x80921b0c
0,       1484,       1484,        1,   270000, 0x80921b0c
0,       1490,       1490,        1,   270000, 0x80921b0c
0,       1497,       1497,        1,   270000, 0x80921b0c
0,       1503,       1503,        1,   270000, 0x80921b0c
0,       1509,       1509,        1,   270000, 0x80921b0c
0,       1515,       1515,        1,   270000, 0x80921b0c
0,       1525,       1525,        1,   270000, 0xf0e626a8
0,       1531,       1531,        1,   270000, 0xf0e626a8
